<svg width="24" height="24" viewBox="0 0 24 24" fill="none" xmlns="http://www.w3.org/2000/svg">
<path d="M4.88201 12.956L10.502 19.307C10.6897 19.5191 10.9203 19.689 11.1785 19.8053C11.4368 19.9217 11.7168 19.9818 12 19.9818C12.2833 19.9818 12.5633 19.9217 12.8215 19.8053C13.0798 19.689 13.3103 19.5191 13.498 19.307L19.118 12.956C20.791 11.065 21.66 8.68699 20.403 6.41999C18.951 3.79999 16.29 3.26399 13.977 5.02399C13.3385 5.51959 12.7473 6.07329 12.211 6.67799C12.1844 6.70755 12.1518 6.73118 12.1155 6.74736C12.0791 6.76354 12.0398 6.7719 12 6.7719C11.9602 6.7719 11.9209 6.76354 11.8845 6.74736C11.8482 6.73118 11.8156 6.70755 11.789 6.67799C11.2527 6.07329 10.6615 5.51959 10.023 5.02399C7.71001 3.26399 5.04901 3.79999 3.59701 6.41999C2.34001 8.68699 3.20901 11.065 4.88201 12.956Z" fill="#CF215B"/>
</svg>
