<svg width="20" height="18" viewBox="0 0 20 18" fill="none" xmlns="http://www.w3.org/2000/svg">
<path d="M2.88201 9.956L8.50201 16.307C8.68968 16.5191 8.92027 16.689 9.17851 16.8054C9.43676 16.9217 9.71677 16.9819 10 16.9819C10.2833 16.9819 10.5633 16.9217 10.8215 16.8054C11.0798 16.689 11.3103 16.5191 11.498 16.307L17.118 9.956C18.791 8.065 19.66 5.687 18.403 3.42C16.951 0.800001 14.29 0.264001 11.977 2.024C11.3385 2.5196 10.7473 3.0733 10.211 3.678C10.1844 3.70756 10.1518 3.73119 10.1155 3.74737C10.0791 3.76355 10.0398 3.77191 10 3.77191C9.96022 3.77191 9.92088 3.76355 9.88453 3.74737C9.84819 3.73119 9.81564 3.70756 9.78901 3.678C9.2527 3.0733 8.6615 2.5196 8.02301 2.024C5.71001 0.264001 3.04901 0.800001 1.59701 3.42C0.34001 5.687 1.20901 8.065 2.88201 9.956Z" stroke="white" stroke-linecap="round" stroke-linejoin="round"/>
</svg>
