<svg width="20" height="20" viewBox="0 0 20 20" fill="none" xmlns="http://www.w3.org/2000/svg">
<path d="M1 19C1.957 15.924 4.42 15 10 15C15.58 15 18.043 15.924 19 19M15 6C15 7.32608 14.4732 8.59785 13.5355 9.53553C12.5979 10.4732 11.3261 11 10 11C8.67392 11 7.40215 10.4732 6.46447 9.53553C5.52678 8.59785 5 7.32608 5 6C5 4.67392 5.52678 3.40215 6.46447 2.46447C7.40215 1.52678 8.67392 1 10 1C11.3261 1 12.5979 1.52678 13.5355 2.46447C14.4732 3.40215 15 4.67392 15 6Z" stroke="white" stroke-linecap="round" stroke-linejoin="round"/>
</svg>
